<?xml version="1.0" standalone="no"?>
<!DOCTYPE svg PUBLIC "-//W3C//DTD SVG 20010904//EN"
 "http://www.w3.org/TR/2001/REC-SVG-20010904/DTD/svg10.dtd">
<svg version="1.0" xmlns="http://www.w3.org/2000/svg"
 width="1875.000000pt" height="1875.000000pt" viewBox="0 0 1875.000000 1875.000000"
 preserveAspectRatio="xMidYMid meet">

<g transform="translate(0.000000,1875.000000) scale(0.100000,-0.100000)"
fill="#000000" stroke="none">
<path d="M9260 18744 c-166 -21 -308 -63 -442 -130 -120 -59 -188 -107 -309
-217 -169 -154 -8202 -8197 -8246 -8257 -144 -192 -226 -400 -253 -636 -8 -72
-10 -1227 -8 -4259 l3 -4160 22 -90 c61 -255 168 -451 343 -625 186 -186 406
-301 678 -352 53 -10 624 -13 2782 -13 l2715 0 105 23 c488 107 844 460 968
962 15 59 17 279 22 2245 l5 2180 1730 0 1730 0 5 -2180 c5 -2049 7 -2184 23
-2254 118 -486 484 -847 967 -953 l105 -23 2720 0 c2628 0 2723 1 2810 19 390
82 710 325 884 674 36 72 82 204 108 312 17 71 18 274 21 4235 2 3033 0 4187
-8 4259 -26 229 -102 424 -239 618 -45 64 -8058 8090 -8261 8276 -200 182
-390 281 -633 327 -83 16 -283 27 -347 19z"/>
</g>
</svg>
