<?xml version="1.0" standalone="no"?>
<!DOCTYPE svg PUBLIC "-//W3C//DTD SVG 20010904//EN"
 "http://www.w3.org/TR/2001/REC-SVG-20010904/DTD/svg10.dtd">
<svg version="1.0" xmlns="http://www.w3.org/2000/svg"
 width="1600.000000pt" height="1600.000000pt" viewBox="0 0 1600.000000 1600.000000"
 preserveAspectRatio="xMidYMid meet">

<g transform="translate(0.000000,1600.000000) scale(0.100000,-0.100000)"
fill="#000000" stroke="none">
<path d="M7996 13953 c-4 -27 -170 -1693 -371 -3703 -201 -2010 -367 -3676
-371 -3702 l-6 -48 -971 0 c-539 0 -1054 -5 -1157 -10 -694 -39 -1257 -170
-1700 -395 -430 -220 -722 -528 -844 -895 -55 -165 -70 -269 -70 -485 -1 -399
79 -734 264 -1110 425 -862 1297 -1432 2400 -1569 656 -82 1175 -25 1657 180
499 212 951 608 1296 1134 349 533 570 1142 642 1775 43 381 135 1424 244
2785 46 568 241 3065 241 3084 0 2 42 7 93 11 896 64 1644 190 2382 402 821
234 1609 597 2125 976 52 38 107 81 122 95 l27 25 -375 748 -374 749 -2624 0
-2624 0 -6 -47z"/>
</g>
</svg>
