<?xml version="1.0" encoding="UTF-8"?>
<svg version="1.1" xmlns="http://www.w3.org/2000/svg" width="512" height="512">
<path d="M0 0 C2.35385812 0.01613404 4.70600642 0.00000829 7.05981445 -0.01904297 C18.18627922 -0.03323581 29.15388714 0.84629897 39.78833008 4.39111328 C39.78833008 10.66111328 39.78833008 16.93111328 39.78833008 23.39111328 C37.54223633 22.93538411 35.29614258 22.47965495 33.05004883 22.02392578 C31.97368164 21.81509766 30.89731445 21.60626953 29.78833008 21.39111328 C29.04301025 21.22426025 28.29769043 21.05740723 27.52978516 20.88549805 C19.40206531 19.19200188 11.36698794 19.03358906 3.10083008 19.07861328 C2.03626587 19.08184601 2.03626587 19.08184601 0.95019531 19.08514404 C-25.9742088 19.21653076 -49.22796134 26.62911614 -69.21166992 45.39111328 C-99.86791245 76.99593153 -106.3649056 121.40465568 -110.21166992 163.39111328 C-107.22541241 160.46100762 -104.43141117 157.4940784 -101.77416992 154.26611328 C-85.9386967 136.41035455 -62.24477112 124.01397204 -38.46557617 122.08764648 C-34.62561964 121.9550884 -30.8037507 121.92362327 -26.96166992 121.95361328 C-25.9501889 121.95767685 -25.9501889 121.95767685 -24.91827393 121.96182251 C-13.89149823 122.02878278 -3.72751828 123.02867901 6.78833008 126.39111328 C8.56143555 126.95185547 8.56143555 126.95185547 10.37036133 127.52392578 C29.63604977 134.29719459 44.37837097 148.20614485 53.97583008 166.01611328 C67.23937678 193.9526844 67.54103073 229.55907951 57.29223633 258.54736328 C52.87405831 270.18578218 47.27755856 280.19319255 38.78833008 289.39111328 C38.17602539 290.09494141 37.5637207 290.79876953 36.93286133 291.52392578 C23.25604479 306.39637021 1.34972408 315.51730419 -18.56640625 316.56811523 C-49.90752071 317.12043004 -74.42234129 313.02383162 -97.94995117 290.80517578 C-126.0407103 261.709615 -132.43305678 219.34263312 -132.46166992 180.57861328 C-132.46234467 179.75052155 -132.46301941 178.92242981 -132.4637146 178.06924438 C-132.40269134 130.45228528 -125.09891874 76.3605206 -92.21166992 39.39111328 C-91.51557617 38.55193359 -90.81948242 37.71275391 -90.10229492 36.84814453 C-77.87605203 22.4577674 -61.52403997 12.56794581 -43.77416992 6.51611328 C-42.9775293 6.2419458 -42.18088867 5.96777832 -41.36010742 5.68530273 C-27.78666224 1.34109894 -14.1778518 -0.1150632 0 0 Z M-92.85620117 167.62548828 C-105.3120035 182.25021141 -109.24267328 197.70322274 -108.21166992 216.39111328 C-106.36191124 236.04144831 -97.90937535 255.4003685 -85.21166992 270.39111328 C-84.69217773 271.05498047 -84.17268555 271.71884766 -83.63745117 272.40283203 C-73.2526552 285.20152731 -58.21972444 293.14056089 -42.21166992 296.39111328 C-38.11753946 296.80504745 -34.07446668 296.86871329 -29.96166992 296.82861328 C-28.86701416 296.82104004 -27.7723584 296.8134668 -26.64453125 296.80566406 C-8.45536412 296.43739156 7.66238516 290.22187203 20.78833008 277.39111328 C36.19501319 259.85193438 41.21447255 237.90601281 41.10083008 215.01611328 C41.09591553 213.83581543 41.09100098 212.65551758 41.0859375 211.43945312 C40.84760477 193.67572051 36.9344288 177.55647126 25.78833008 163.39111328 C25.35133789 162.77880859 24.9143457 162.16650391 24.46411133 161.53564453 C15.26955818 149.46951922 -0.60621476 142.6671254 -15.21166992 140.39111328 C-45.55441878 138.05962622 -71.32964044 145.31178781 -92.85620117 167.62548828 Z " fill="#FFFFFF" transform="translate(285.211669921875,95.60888671875)"/>
</svg>
