<svg xmlns="http://www.w3.org/2000/svg" viewBox="0 0 16 16" width="256" height="256" shape-rendering="crispEdges">
  <!-- Фон -->
  <rect width="16" height="16" fill="none"/>

  <!-- Внешний контур монеты -->
  <rect x="4" y="0" width="8" height="1" fill="#FFD93B"/>
  <rect x="3" y="1" width="10" height="1" fill="#FFB32B"/>
  <rect x="2" y="2" width="12" height="1" fill="#FFB32B"/>
  <rect x="1" y="3" width="14" height="1" fill="#E68A1F"/>
  <rect x="0" y="4" width="16" height="8" fill="#E68A1F"/>
  <rect x="1" y="12" width="14" height="1" fill="#E68A1F"/>
  <rect x="2" y="13" width="12" height="1" fill="#C66A12"/>
  <rect x="3" y="14" width="10" height="1" fill="#C66A12"/>
  <rect x="4" y="15" width="8" height="1" fill="#A84D08"/>

  <!-- Внутренний круг -->
  <rect x="4" y="4" width="8" height="8" fill="#F9C74F"/>
  <rect x="3" y="5" width="10" height="6" fill="#F5A623"/>
  <rect x="5" y="3" width="6" height="10" fill="#FFCF4A"/>

  <!-- Плюс -->
  <rect x="7" y="5" width="2" height="6" fill="#FFF176"/>
  <rect x="5" y="7" width="6" height="2" fill="#FFF176"/>
</svg>
