<?xml version="1.0" encoding="UTF-8"?>
<!DOCTYPE svg PUBLIC "-//W3C//DTD SVG 1.1//EN" "http://www.w3.org/Graphics/SVG/1.1/DTD/svg11.dtd">
<svg xmlns="http://www.w3.org/2000/svg" version="1.1" width="1200px" height="1200px" style="shape-rendering:geometricPrecision; text-rendering:geometricPrecision; image-rendering:optimizeQuality; fill-rule:evenodd; clip-rule:evenodd" xmlns:xlink="http://www.w3.org/1999/xlink">
<g><path style="opacity:0.99" fill="#fefffe" d="M 585.5,177.5 C 704.491,176.561 795.658,225.895 859,325.5C 882.414,365.742 895.748,409.076 899,455.5C 895.784,456.462 892.618,457.628 889.5,459C 876.167,467.667 862.833,476.333 849.5,485C 847.635,486.301 845.635,486.635 843.5,486C 787.656,445.911 731.99,405.578 676.5,365C 672.185,363.158 667.852,363.158 663.5,365C 613.5,406 563.5,447 513.5,488C 511.365,488.635 509.365,488.301 507.5,487C 492.498,476.257 476.998,466.423 461,457.5C 458.865,458.127 456.698,458.627 454.5,459C 405.136,483.349 355.802,507.682 306.5,532C 305.167,532.667 303.833,532.667 302.5,532C 287.064,435.886 310.897,351.053 374,277.5C 431.09,216.041 501.59,182.707 585.5,177.5 Z"/></g>
<g><path style="opacity:1" fill="#cecdcc" d="M 667.5,375.5 C 669.199,375.34 670.866,375.506 672.5,376C 729.323,417.578 786.323,458.911 843.5,500C 846.255,499.665 848.922,498.665 851.5,497C 866.677,487.151 881.844,477.318 897,467.5C 898.473,467.903 899.806,468.57 901,469.5C 902.933,527.313 889.933,581.313 862,631.5C 793.309,737.264 695.476,786.431 568.5,779C 455.368,764.152 373.868,705.652 324,603.5C 315.911,584.402 309.744,564.735 305.5,544.5C 356.502,520.499 407.169,495.666 457.5,470C 459.167,469.333 460.833,469.333 462.5,470C 477.833,480.333 493.167,490.667 508.5,501C 510.365,502.301 512.365,502.635 514.5,502C 565.939,460.292 616.939,418.125 667.5,375.5 Z"/></g>
<g><path style="opacity:0.975" fill="#cecdcc" d="M 937.5,870.5 C 976.018,866.863 999.518,883.863 1008,921.5C 1013.33,950.209 1007,975.875 989,998.5C 971.551,1015.06 951.385,1019.23 928.5,1011C 908.408,1000.01 896.241,983.181 892,960.5C 887.54,937.722 890.54,916.055 901,895.5C 909.891,882.31 922.058,873.977 937.5,870.5 Z M 944.5,932.5 C 955.571,930.44 962.404,934.773 965,945.5C 967.255,955.638 965.922,965.305 961,974.5C 955.47,983.814 948.803,984.814 941,977.5C 933.249,964.494 932.582,951.161 939,937.5C 940.73,935.598 942.563,933.931 944.5,932.5 Z"/></g>
<g><path style="opacity:0.974" fill="#fefffe" d="M 338.5,872.5 C 353.17,872.333 367.837,872.5 382.5,873C 426.904,878.007 444.071,902.174 434,945.5C 429.029,956.971 420.863,965.304 409.5,970.5C 417.434,981.838 426.434,992.338 436.5,1002C 424.406,1007.21 412.406,1012.71 400.5,1018.5C 390.952,1007.77 383.119,995.769 377,982.5C 375.756,992.126 375.256,1001.79 375.5,1011.5C 358.5,1011.5 341.5,1011.5 324.5,1011.5C 323.245,965.798 321.245,920.131 318.5,874.5C 325.363,874.362 332.03,873.696 338.5,872.5 Z M 377.5,931.5 C 392.536,930.36 398.369,937.027 395,951.5C 390.471,957.014 384.638,959.681 377.5,959.5C 377.5,950.167 377.5,940.833 377.5,931.5 Z"/></g>
<g><path style="opacity:0.975" fill="#cecdcc" d="M 661.5,872.5 C 676.17,872.333 690.837,872.5 705.5,873C 751.478,879.465 769.311,905.298 759,950.5C 748.313,973.603 730.147,984.603 704.5,983.5C 703.683,992.809 703.35,1002.14 703.5,1011.5C 686.833,1011.5 670.167,1011.5 653.5,1011.5C 652.245,965.799 650.245,920.132 647.5,874.5C 652.37,874.31 657.036,873.644 661.5,872.5 Z M 705.5,929.5 C 724.017,929.892 729.184,938.226 721,954.5C 716.144,958.589 710.644,959.923 704.5,958.5C 705.474,948.887 705.808,939.22 705.5,929.5 Z"/></g>
<g><path style="opacity:0.974" fill="#cecdcc" d="M 786.5,872.5 C 801.17,872.333 815.837,872.5 830.5,873C 874.904,878.007 892.071,902.174 882,945.5C 877.029,956.971 868.863,965.304 857.5,970.5C 865.434,981.838 874.434,992.338 884.5,1002C 872.406,1007.21 860.406,1012.71 848.5,1018.5C 838.952,1007.77 831.119,995.769 825,982.5C 823.756,992.126 823.256,1001.79 823.5,1011.5C 806.5,1011.5 789.5,1011.5 772.5,1011.5C 771.245,965.798 769.245,920.131 766.5,874.5C 773.363,874.362 780.03,873.696 786.5,872.5 Z M 825.5,931.5 C 840.536,930.36 846.369,937.027 843,951.5C 838.471,957.014 832.638,959.681 825.5,959.5C 825.5,950.167 825.5,940.833 825.5,931.5 Z"/></g>
<g><path style="opacity:0.977" fill="#fefffe" d="M 190.5,875.5 C 209.833,875.5 229.167,875.5 248.5,875.5C 247.083,908.518 247.25,941.518 249,974.5C 250.803,987.322 257.97,991.988 270.5,988.5C 270.833,982.833 271.167,977.167 271.5,971.5C 270.874,939.467 269.541,907.467 267.5,875.5C 282.167,875.5 296.833,875.5 311.5,875.5C 309.78,919.483 308.78,963.483 308.5,1007.5C 283.34,1015.7 258.006,1016.86 232.5,1011C 218.397,1005.9 208.564,996.397 203,982.5C 200.573,976.368 198.907,970.034 198,963.5C 194.285,934.253 191.785,904.92 190.5,875.5 Z"/></g>
<g><path style="opacity:0.969" fill="#fefffe" d="M 465.5,875.5 C 483.833,875.5 502.167,875.5 520.5,875.5C 528.76,920.874 538.76,965.874 550.5,1010.5C 534.177,1011.67 517.844,1011.83 501.5,1011C 500.005,1007.18 498.505,1003.35 497,999.5C 489.755,1003.58 482.922,1008.25 476.5,1013.5C 473.77,1007.71 470.77,1002.04 467.5,996.5C 465.696,1001.38 464.363,1006.38 463.5,1011.5C 454.5,1011.5 445.5,1011.5 436.5,1011.5C 442.172,987.144 448.005,962.811 454,938.5C 458.544,917.614 462.378,896.614 465.5,875.5 Z M 481.5,952.5 C 486.162,961.631 490.162,971.131 493.5,981C 486.355,983.357 479.022,984.524 471.5,984.5C 474.229,973.646 477.562,962.98 481.5,952.5 Z"/></g>
<g><path style="opacity:0.981" fill="#fefffe" d="M 551.5,875.5 C 572.167,875.5 592.833,875.5 613.5,875.5C 612.045,912.513 610.378,949.513 608.5,986.5C 620.254,986.453 631.921,985.453 643.5,983.5C 641.448,992.426 639.781,1001.43 638.5,1010.5C 611.5,1010.5 584.5,1010.5 557.5,1010.5C 557.042,965.426 555.042,920.426 551.5,875.5 Z"/></g>
</svg>
